<?xml version="1.0" encoding="utf-8"?>
<!-- Generator: Adobe Illustrator 15.0.0, SVG Export Plug-In  -->
<!DOCTYPE svg PUBLIC "-//W3C//DTD SVG 1.1//EN" "http://www.w3.org/Graphics/SVG/1.1/DTD/svg11.dtd" [
	<!ENTITY ns_flows "http://ns.adobe.com/Flows/1.0/">
]>
<svg version="1.1"
	 xmlns="http://www.w3.org/2000/svg" xmlns:xlink="http://www.w3.org/1999/xlink" xmlns:a="http://ns.adobe.com/AdobeSVGViewerExtensions/3.0/"
	 x="0px" y="0px" width="423px" height="424px" viewBox="-1.371 -1.931 423 424"
	 overflow="visible" enable-background="new -1.371 -1.931 423 424" xml:space="preserve">
<defs>
</defs>
<path fill="#2D6AB9" d="M201.947,0c5.385,0,10.77,0,16.151,0c62.9,3.637,107.325,28.559,140.801,62.035
	c33.419,33.414,57.773,78.322,61.165,141.365c0,4.424,0,8.85,0,13.273c-3.525,63.188-27.896,108.381-61.457,141.951
	c-33.568,33.561-78.755,57.93-141.942,61.438c-4.424,0-8.855,0-13.282,0c-62.996-3.51-108.187-27.691-141.645-61.154
	C28.302,325.477,3.792,280.74,0,218.115c0-5.383,0-10.775,0-16.158c3.493-62.164,28.235-107.006,61.738-140.5
	C95.337,27.844,140.03,3.602,201.947,0z M49.035,156.66c-1.502,6.291-0.578,15.201-0.578,23.367c0,8.381-0.969,17.027,0.297,23.662
	c1.486,7.867,6.841,13.164,12.106,15.572c6.307,2.885,16.421,1.732,25.97,1.732c45.251,0,87.661,0,133.003,0
	c7.623,0,16.101,0.773,21.352-0.863c7.064-2.188,12.358-7.764,14.137-15.861c1.42-6.471,0.582-15.291,0.582-23.664
	c0-8.285,0.985-17.059-0.582-23.654c-1.912-8.002-7.564-13.797-15.283-15.869c-5.457-1.467-13.281-0.574-20.777-0.574
	c-35.725,0-72.336,0-108.2,0c-13.894,0-30.663-1.203-43.551,0.285C59.29,141.742,51.259,147.363,49.035,156.66z M315.906,182.92
	c-2.38-2.715-6.246-9.021-9.234-9.811c-4.255-1.137-11.834,0-17.299,0c-9.748,0-23.312-1.85-25.687,4.611
	c-0.848,2.307-0.289,6.32-0.289,9.814c0,24.689,0,48.783,0,72.42c4.943-6.418,11.287-12.203,21.633-12.984
	c15.185-1.154,27.646,8.344,29.725,21.924c22.115,0,44.239,0,66.358,0c-3.261-18.859-7.143-37.102-10.386-55.979
	c-9.332,0-18.657,0-27.989,0C334.022,203.109,324.963,193.27,315.906,182.92z M42.693,231.385c0,2.691,0,5.383,0,8.084
	c70.491,0,140.982,0,211.475,0c0-2.982,0-5.965,0-8.947c-70.403,0-140.789,0-211.186,0C42.64,230.566,42.67,230.982,42.693,231.385z
	 M62.021,247.254c0,5.391,0,10.768,0,16.16c2.407,0,4.811,0,7.213,0c3.569-8.545,10.434-13.803,20.196-16.16
	C80.291,247.254,71.152,247.254,62.021,247.254z M120.873,263.414c1.919,0,3.853,0,5.771,0c3.482-8.643,10.427-13.812,20.197-16.16
	c-15.481,0.191-31.737-0.387-46.729,0.289C110.715,249.143,116.517,255.553,120.873,263.414z M178.283,263.414
	c25.3,0,50.586,0,75.885,0c0-5.395,0-10.77,0-16.16c-32.125,0.191-65.01-0.387-96.646,0.289
	C168.155,249.111,173.86,255.635,178.283,263.414z M77.31,263.123c-6.113,10.041-1.561,24.234,8.074,29.137
	c8.294,4.209,17.954,1.799,23.375-3.168c14.211-13.043,3.458-38.09-17.021-35.197C84.791,254.869,79.422,259.658,77.31,263.123z
	 M131.834,271.777c-0.965,10.441,5.042,17.789,11.541,20.771c16.72,7.684,31.086-7.189,29.146-21.93
	c-1.375-10.428-11.446-18.404-23.374-16.725C140.044,255.174,132.755,261.92,131.834,271.777z M267.153,274.086
	c0.104,14.598,16.322,25.178,29.998,18.174c8.479-4.344,15.14-17.559,8.076-29.137c-2.842-4.654-10.53-10.635-20.481-9.229
	C275.271,255.225,267.078,262.609,267.153,274.086z"/>
<path fill="#2D6AB9" d="M280.708,184.072c6.357,0,13.434,0,20.191,0c1.916,0,5.807,5.801,7.793,8.084
	c5.384,6.135,8.635,10.344,14.428,17.02c2.244,2.574,6.559,5.951,7.213,8.361c0.66,2.4,0,5.73,0,7.793c-16.637,0-33.277,0-49.914,0
	c0-13.469,0-26.936,0-40.396C280.396,184.525,280.374,184.117,280.708,184.072z"/>
</svg>
