<?xml version="1.0" encoding="utf-8"?>
<!-- Generator: Adobe Illustrator 15.0.0, SVG Export Plug-In  -->
<!DOCTYPE svg PUBLIC "-//W3C//DTD SVG 1.1//EN" "http://www.w3.org/Graphics/SVG/1.1/DTD/svg11.dtd" [
	<!ENTITY ns_flows "http://ns.adobe.com/Flows/1.0/">
]>
<svg version="1.1"
	 xmlns="http://www.w3.org/2000/svg" xmlns:xlink="http://www.w3.org/1999/xlink" xmlns:a="http://ns.adobe.com/AdobeSVGViewerExtensions/3.0/"
	 x="0px" y="0px" width="423px" height="424px" viewBox="-0.656 -1.202 423 424"
	 overflow="visible" enable-background="new -0.656 -1.202 423 424" xml:space="preserve">
<defs>
</defs>
<path fill="#2D6AB9" d="M343.528,109.15c1.281,3.066,2.945,5.746,4.091,8.947c-8.522,0-17.043,0-25.562,0
	c1.423-2.92,2.604-6.088,4.09-8.947C331.938,109.15,337.733,109.15,343.528,109.15z"/>
<path fill="#2D6AB9" d="M203.19,0c5.027,0,10.057,0,15.083,0c63.399,3.896,107.494,27.74,141.616,61.861
	c25.286,25.285,45.271,56.822,55.214,96.881c3.434,13.828,5.612,28.805,6.391,44.734c0,4.855,0,9.713,0,14.57
	c-4.019,63.352-27.443,107.709-61.604,141.869c-25.188,25.188-57.43,45.357-97.138,55.215c-13.729,3.41-28.729,5.613-44.735,6.391
	c-4.854,0-9.713,0-14.569,0c-39.924-1.99-72.738-12.828-99.693-29.139c-26.911-16.287-49.167-36.732-66.716-62.117
	c-16.974-24.551-31.086-55.914-35.533-93.303c-4.875-41,2.538-81.482,15.85-109.662c3.99,1.711,7.861,4.146,11.248,6.9
	c0.917,0.746,1.926,2.191,3.067,1.789c0.304-1.998,1.705-2.881,1.789-4.346c0.23-3.998-11.244-7.771-13.805-9.967
	C35.749,87.248,59.623,59.551,89.184,38.6C118.782,17.621,155.46,2.328,203.19,0z M331.003,189.16
	c3.776,1.617,11.053,6.461,16.104,5.625c3.527-0.584,6.967-5.66,9.457-8.691c5.419-6.59,11.208-13.748,16.359-19.939
	c2.473-2.971,6.864-6.904,7.157-10.992c0.382-5.311-3.854-9.107-8.945-8.436c-3.649,0.482-5.729,4.279-7.926,6.902
	c-7.177,8.576-13.225,16.24-20.449,24.027c-14.708-6.779-29.573-12.826-44.99-19.428c-4.277-1.83-10.81-6.5-16.103-5.623
	c-4.028,0.668-6.396,5.574-6.903,7.668c-1.149,4.752-0.255,11.43-0.255,17.383c0,6.029,0,12.229,0,17.639
	c0,11.775,0.924,24.189,0,35.275c-0.701,8.416-2.667,18.197-4.09,27.861c-3.58,24.322-6.623,46.092-9.971,70.553
	c-0.648,4.756-2.449,10.756-1.788,14.316c1.38,7.428,12.799,10.312,17.126,3.322c1.672-2.699,1.701-7.111,2.302-11.504
	c3.976-29.059,8.549-57.789,12.524-85.889c4.176,0,8.351,0,12.525,0c4.862,26.967,10.756,56.963,15.594,84.865
	c0.62,3.588,0.994,9.287,2.556,12.014c4.055,7.076,15.715,5.24,17.382-2.555c0.77-3.58-1.188-9.814-2.045-14.314
	c-4.723-24.779-8.276-48.096-12.524-72.598c-1.728-9.967-4.177-20.182-4.856-29.143c-0.944-12.447,0.714-24.248,0-36.553
	c-11.27-7.221-22.85-14.131-34.254-21.217c-0.596-0.145-0.596-0.77,0-0.256C299.508,175.82,315.543,182.543,331.003,189.16z
	 M346.085,104.807c-6.509-1.012-15.819-0.516-22.751-0.256c-2.101,2.928-3.299,6.754-4.855,10.225
	c6.661,9.869,2.995,25.58-2.812,32.463c-1.046,1.242-3.062,1.9-2.812,3.578c15.166,0,30.335,0,45.501,0
	c1.061-3.711,1.337-8.205,2.557-11.758c0.938,0,1.874,0,2.812,0c1.183-3.844,7.83-2.225,12.526-2.555
	c2.618,2.578,3.472,6.924,9.969,5.625c0-7.414,0-14.826,0-22.24c-5.188-1.457-6.566,3.785-9.969,4.602
	c-2.885,0.693-6.016-0.504-9.971,0c-0.112-0.482,0.349-1.541-0.51-1.279c-2.438,0.043-1.845-2.125-4.604-1.277
	c-1.197-1.273-2.27-2.672-3.578-3.834c-1.534,0-3.067,0-4.6,0C350.615,113.736,349.146,108.475,346.085,104.807z M274.511,126.533
	c-1.209,11.803,7.296,21.729,19.171,21.729c6.372,0,13.283-4.297,16.105-8.436c10.005-14.676-3.271-31.9-18.659-29.908
	C282.443,111.043,275.443,117.42,274.511,126.533z M120.37,125.512c-5.28,10.74,0.767,22.764,8.69,26.84
	c14.172,7.287,30.741-4.258,29.396-19.684c-0.438-4.996-3.756-10.617-6.393-13.035c-3.449-3.17-9.271-5.758-16.359-4.857
	C128.264,115.721,122.665,120.844,120.37,125.512z M183.509,194.785c1.686,1.129,4.451,2.631,5.369,4.09
	c0.705,1.123,1.013,3.113,1.532,4.602c1.707,4.873,3.104,9.088,4.857,14.059c1.763,5.002,4.041,14.951,8.69,16.613
	c2.166,0.775,5.479,0.459,6.901-0.51c5.025-3.422,1.702-11.779,0-16.615c-2.156-6.127-4.415-12.764-6.39-18.404
	c-1.152-3.287-1.849-6.988-3.324-9.203c-1.488-2.232-6.284-4.758-9.457-6.9c-3.315-2.24-7.153-4.705-9.97-6.646
	c-7.383-5.09-13.299-9.936-19.682-13.549c-2.295-1.297-9.091-3.459-11.248-3.322c-1.317,0.084-2.854,1.08-4.347,1.533
	c-1.646,0.5-3.334,0.822-5.111,1.021c-9.438,1.064-13.986-2.838-19.683-6.391c-6.409-3.994-12.024-7.162-18.148-10.99
	c-2.972-1.859-5.849-4.242-9.204-5.369c-3.639-1.221-7.857-1.34-12.27-2.045c-8.277-1.322-16.929-2.826-25.052-4.09
	c-8.076-1.256-19.104-4.18-19.682,5.111c-0.493,7.936,6.536,7.871,13.547,8.947c9.28,1.424,16.825,2.703,25.562,4.09
	c4.119,0.654,8.874,0.754,12.781,2.045c2.138,0.707,5.249,2.914,7.925,4.604c5.787,3.646,9.49,6.113,15.336,9.713
	c2.2,1.354,6.905,3.613,7.413,5.111c0.558,1.639,0,5.371,0,8.182c0,8.48,0,18.141,0,25.307c0,11.549,0.875,23.777,0,33.23
	c-0.383,4.139-1.612,8.789-2.555,13.291c-5.585,26.67-11.076,51.83-16.617,78.477c-0.906,4.359-2.863,10.135-2.3,13.807
	c0.729,4.75,5.956,8.295,11.504,6.898c6.21-1.561,6.748-9.986,7.923-15.848c5.686-28.332,12.505-57.971,18.15-85.635
	c3.981,0.535,8.9,0.133,13.292,0.258c0.673,27.928,0.716,56.432,1.277,84.865c0.071,3.6-0.224,8.662,1.021,11.504
	c1.588,3.619,6.485,6.666,11.76,4.602c7.157-2.805,5.112-13.967,5.112-24.027c-0.001-48.113-2.618-96.332-1.79-143.66
	C172.844,187.836,177.458,190.732,183.509,194.785z M254.829,233.895c7.788-9.975,3.37-28.336,3.833-44.988
	c0.424-15.271,4.213-26.289,10.479-34.766c0.566-0.764,4.631-4.207,4.603-5.111c-0.039-1.236-3.51-2.586-3.833-4.346
	c-0.305,0.123-0.58,0.271-0.77,0.51c-6.73,7.395-12.046,15.072-14.826,27.607c-2.727,12.303-0.766,26.488-0.766,40.389
	c0,11.744-1.78,21.771-14.571,20.449c-4.176-0.432-10.442-2.787-13.293-4.346c-2.848-1.559-4.564-4.789-9.201-4.602
	c0.22,2.934,0.813,5.492,1.277,8.18c5.284,1.148,9.692,5.457,12.014,9.203c5.503,8.875,2.406,25.676-3.321,31.186
	c-3.641,3.5-8.547,5.424-15.338,4.857c-12.923-1.076-22.983-11.67-21.984-26.584c0.43-6.402,2.097-10.969,4.857-14.57
	c0.876-1.145,2.829-2.355,3.067-3.58c0.421-2.172-1.236-4.502-1.278-6.9c-7.65,0.613-15.086,1.443-22.751,2.045
	c0.169,1.961-0.338,4.598,0.255,6.135c5.168-0.713,10.703-1.057,16.104-1.533c-3.385,4.898-5.651,10.131-6.134,16.869
	c-1.447,20.189,12.389,34.254,29.908,34.254c11.014,0,19.133-6.283,22.748-14.568c3.668-8.402,3.875-22.83-0.766-30.676
	C242.972,241.244,251.098,238.67,254.829,233.895z M69.501,205.266c-7.193-15.799-12.473-34.551-19.938-50.613
	c-1.565-0.564-4.151-0.109-6.135-0.256c-0.012,0.352,0.121,0.562,0.255,0.768c7.871,17.791,13.22,38.006,21.217,54.959
	c8.224,17.434,25.084,25.227,48.567,27.607c0-1.959,0-3.92,0-5.881C90.937,229.41,77.212,222.203,69.501,205.266z"/>
</svg>
