<?xml version="1.0" encoding="utf-8"?>
<!-- Generator: Adobe Illustrator 15.0.0, SVG Export Plug-In  -->
<!DOCTYPE svg PUBLIC "-//W3C//DTD SVG 1.1//EN" "http://www.w3.org/Graphics/SVG/1.1/DTD/svg11.dtd" [
	<!ENTITY ns_flows "http://ns.adobe.com/Flows/1.0/">
]>
<svg version="1.1"
	 xmlns="http://www.w3.org/2000/svg" xmlns:xlink="http://www.w3.org/1999/xlink" xmlns:a="http://ns.adobe.com/AdobeSVGViewerExtensions/3.0/"
	 x="0px" y="0px" width="423px" height="424px" viewBox="-1.838 -2.397 423 424"
	 overflow="visible" enable-background="new -1.838 -2.397 423 424" xml:space="preserve">
<defs>
</defs>
<path fill="#2D6AB9" d="M202.084,0c4.906,0,9.812,0,14.716,0c63.266,3.463,107.728,28.268,141.265,61.803
	c33.53,33.531,57.866,78.471,61.065,142c0,3.842,0,7.684,0,11.525c-3.328,63.637-27.664,108.84-61.312,142.49
	c-33.646,33.646-78.854,57.984-142.49,61.312c-3.842,0-7.685,0-11.526,0c-63.524-3.197-108.472-27.541-141.998-61.066
	C28.263,324.523,3.466,280.068,0,216.799c0-4.902,0-9.811,0-14.715C3.753,138.635,28.052,94.818,61.559,61.312
	C95.163,27.703,139.8,3.5,202.084,0z M175.843,58.615c0.314,3.777,6.852,4.838,9.564,6.131c4.011,1.908,6.546,3.719,9.811,6.131
	c15.088,11.143,29.201,35.602,21.337,62.291c-1.15,3.902-3.052,9.535,3.188,9.076c3.916-0.289,4.931-6.998,5.886-11.771
	c3.347-16.715-1.382-34.559-6.621-44.391c-5.771-10.832-15.133-20.883-26.242-26.979c-3.586-1.969-9.885-5.445-13.243-4.904
	C176.816,54.637,175.646,56.242,175.843,58.615z M165.052,75.289c0.164,2,2.598,3.547,4.66,4.416
	c16.652,7.02,30.854,22.502,26.979,47.334c-0.552,3.529-2.617,6.668-1.962,9.32c0.397,1.613,2.288,3.346,5.394,2.695
	c3.015-0.629,3.726-5.688,4.416-9.318c2.352-12.367-0.762-26.58-4.904-34.334c-5.623-10.523-17.173-22.268-30.411-24.771
	c-0.275-0.053-0.396,0.23-0.49,0.246C166.137,71.268,164.859,72.939,165.052,75.289z M159.656,95.893
	c0.542,2.732,4.826,3.52,6.867,4.66c6.196,3.459,11.842,10.51,11.771,20.109c-0.032,4.406-2.219,6.693-1.717,9.811
	c0.282,1.756,2.874,4.08,5.641,3.434c3.375-0.787,4.164-7.127,4.416-11.281c0.67-11.062-4.07-19.977-11.036-25.996
	c-2.996-2.59-8.95-6.693-12.998-5.643C160.711,91.477,159.008,92.619,159.656,95.893z M139.791,133.904
	c-3.085,3.166-5.916,6.652-9.565,10.301c-2.373,2.373-8.484,7.129-9.563,10.301c-1.003,2.943-1.227,5.432-1.227,9.318
	c-19.756,0.09-40.891-3.746-51.011,6.623c-4.854,4.971-6.545,12.875-6.375,23.176c0.176,10.568-0.207,19.506,0.488,29.062
	c0.643,8.834,5.354,15.953,12.018,19.129c5.008,2.389,12.996,2.297,20.6,1.961c7.779-0.34,15.769-0.244,22.808-0.244
	c31.036,0,61.015,0.246,91.97,0.244c7.119,0,13.873,0.143,22.809,0.143c7.485,0,15.864,0.6,21.582-1.121
	c12.354-3.719,15.238-15.197,14.715-31.883c-0.229-7.352,0-15.295,0-22.809c0-10.926-4.336-18.416-11.281-22.072
	c-6.836-3.6-19.392-2.357-29.185-2.207c-33.056,0.504-64.047-0.326-95.402-0.49c0.271-3.166-0.088-6.385,0.981-9.32
	c3.211-2.824,6.832-5.102,10.545-7.848c0.695-0.516,2.865-2.758,3.679-2.697c0.704,0.049,2.692,2.562,3.924,3.432
	c6.981,4.922,21.359,10.322,30.166,3.436c-14.661-18.775-29.731-37.141-44.881-55.428
	C126.064,103.449,132.613,125.621,139.791,133.904z M354.874,235.684c-8.855-10.008-17.924-19.248-26.485-29.676
	c-2.595-3.158-5.492-8.535-9.074-9.809c-2.322-0.828-6.295-0.668-9.022-0.543c-7.078,0.33-17.186-0.223-24.332,0.295
	c-3.227,0.236-7.416,1.26-8.828,3.189c-2.255,3.082-0.98,14.408-0.98,20.109c0,20.992,0,43.867,0,62.537
	c3.545-3.734,7.109-7.432,12.018-9.809c16.854-8.158,37.043,2.734,38.994,19.375c12.182,0,24.902,0,37.083,0
	c-0.129-16.479-0.05-32.225-0.05-48.561c-1.533-0.43-3.633-0.291-4.415-1.471c-0.415-1.383,0.079-3.678-0.735-4.66
	C358.194,235.814,356.65,235.684,354.874,235.684z M57.143,253.832c0.151,2.709-0.311,6.033,0.246,8.338
	c69.812,0,139.63,0,209.441,0c0-2.828,0.092-6.119,0.245-9.072c-69.812,0-139.631,0-209.442,0
	C57.324,253.197,57.131,253.412,57.143,253.832z M76.763,269.527c0,4.428-0.492,10.559-0.492,16.188c2.849,0,4.809,0.1,7.112,0.244
	c3.375-8.641,10.678-13.355,19.62-16.432C94.257,269.527,85.509,269.527,76.763,269.527z M114.531,270.264
	c10.567,1.449,15.933,8.102,20.354,15.695c1.8,0,3.598,0,5.396,0c3.393-8.541,10.457-13.412,19.62-16.188
	C144.498,270.145,129.093,270.264,114.531,270.264z M171.03,269.676c6.975,1.176,11.79,4.43,15.604,8.682
	c1.733,1.932,3.962,7.34,5.888,7.602c2.086,0.283,6.039,0,9.317,0c21.993,0,44.37,0.203,65.237-0.244c0-5.312,0-10.627,0-15.941
	C235.979,270.158,202.193,269.676,171.03,269.676z M90.251,287.432c-6.514,13.809,4.361,28.586,17.414,29.184
	c10.75,0.494,21.582-6.703,21.582-19.619c0-12.242-9.492-22.096-22.81-20.6C98.716,277.262,92.586,282.482,90.251,287.432z
	 M147.396,286.695c-5.729,11.375,1.208,23.83,8.582,27.713c10.896,5.738,23.431,0.387,27.959-8.828
	c2.617-5.324,3.479-13.232,0-19.375c-2.853-5.031-10.449-10.947-20.602-9.809C155.386,277.287,149.575,282.363,147.396,286.695z
	 M281.055,288.658c-6.364,16.256,8.766,29.475,22.317,27.957c9.625-1.076,17.502-10.062,17.412-20.846
	c-0.098-11.742-10.057-20.738-22.809-19.373C289.306,277.322,283.354,282.789,281.055,288.658z"/>
<path fill="#2D6AB9" d="M342.613,247.945c-16.514,0-33.027,0-49.541,0c0-13.57,0-27.141,0-40.711
	c7.838-0.053,14.158-0.246,20.601-0.246c2.635,0,5.828,4.814,8.104,7.502c5.034,5.943,8.274,10.387,13.906,16.654
	c2.284,2.545,6.93,5.91,6.93,8.707C342.613,242.543,342.613,246.006,342.613,247.945z"/>
</svg>
