<?xml version="1.0" encoding="utf-8"?>
<!-- Generator: Adobe Illustrator 15.0.0, SVG Export Plug-In  -->
<!DOCTYPE svg PUBLIC "-//W3C//DTD SVG 1.1//EN" "http://www.w3.org/Graphics/SVG/1.1/DTD/svg11.dtd" [
	<!ENTITY ns_flows "http://ns.adobe.com/Flows/1.0/">
]>
<svg version="1.1"
	 xmlns="http://www.w3.org/2000/svg" xmlns:xlink="http://www.w3.org/1999/xlink" xmlns:a="http://ns.adobe.com/AdobeSVGViewerExtensions/3.0/"
	 x="0px" y="0px" width="423px" height="424px" viewBox="-1.584 -2.144 423 424"
	 overflow="visible" enable-background="new -1.584 -2.144 423 424" xml:space="preserve">
<defs>
</defs>
<path fill="#2D6AB9" d="M203.453,0c4.187,0,8.373,0,12.559,0c63.841,3.338,108.572,27.84,142.273,61.537
	s58.078,78.553,61.354,142.449c0,3.828,0,7.656,0,11.482c-1.026,32.207-8.717,59.258-19.377,82.709
	c-10.561,23.236-25.295,43.414-41.979,60.102c-16.689,16.689-36.869,31.422-60.104,41.98c-23.45,10.66-50.498,18.35-82.708,19.377
	c-3.768,0-7.535,0-11.303,0c-64.01-3.225-108.906-27.631-142.631-61.357C27.836,324.576,3.339,279.848,0,216.01
	c0-4.189,0-8.375,0-12.561c0.663-16.207,2.854-31.227,6.279-45.031c9.973-40.176,30.179-71.98,55.259-97.062
	C95.348,27.551,140.211,3.354,203.453,0z M138.687,109.617c-3.12,3.023-5.922,6.758-6.458,12.918
	c-0.93,10.639,4.877,17.463,10.047,20.633c14.317,8.775,33.849-2.25,32.473-20.094c-0.452-5.891-3.274-10.428-6.995-13.814
	c-3.646-3.32-8.838-5.979-15.431-5.562C146.023,104.094,141.865,106.541,138.687,109.617z M187.308,142.092
	c0.884,1.102,2.222,2.066,3.589,3.229c1.027,0.875,3.108,2.121,3.405,3.408c0.547,2.354-0.838,5.014-0.537,8.072
	c7.005,0.592,14.285,0.904,21.168,1.615c-1.166-0.244-0.69,0.893-0.713,1.436c-0.089,1.984,0.461,4.473,0.713,6.818
	c0.738,6.824,1.597,13.949,2.156,20.453c0.312,0.975,2.238,1.184,1.793,2.332c-6.068,1.836-13.38,4.1-19.734,6.1
	c-2.189,0.688-4.944,1.174-6.459,2.152c-2.485,1.604-3.086,4.967-5.203,6.816c1.932,0.881,3.675,1.945,5.562,2.869
	c1.285-1.207,1.834-3.674,3.586-4.662c1.486-0.84,4.007-1.137,6.104-1.797c5.899-1.854,12.597-4.211,17.94-5.561
	c-0.147,2.305-2.182,2.723-2.151,5.201c13.455,0,26.91,0,40.365,0c-18.974,40.736-38.421,83.797-57.589,124.869
	c-1.312,2.812-3.553,6.324-3.411,8.793c0.152,2.637,2.618,4.943,6.103,3.945c1.887-0.541,3.385-3.758,4.485-6.102
	c17.221-36.68,33.344-73.859,50.413-109.262c-1.002,25.033-2.22,50.438-3.229,75.713c-0.143,3.592-0.981,8.273-0.18,10.764
	c1.053,3.271,6.729,3.986,8.432,0.896c1.125-2.041,0.758-6.854,0.896-10.586c0.973-26.154,2.262-53.35,3.407-78.223
	c13.371,36.605,27.638,74.568,41.267,111.594c0.719,1.951,1.764,5.984,3.229,6.996c3.025,2.09,7.215-0.08,7.355-3.588
	c0.09-2.225-1.906-5.988-2.871-8.609c-15.66-42.617-31.451-84.934-46.826-127.203c20.272-0.119,41.025,0.238,61-0.18
	c0-3.889,0-7.775,0-11.66c6.764,2.686,13.34,5.559,20.272,8.072c0-11.123,0-22.248,0-33.371c-6.793,2.416-13.786,5.59-20.272,7.715
	c0-4.244,0-8.492,0-12.736c-29.662,0-59.324,0-88.986,0c0.496-5.904,0.964-11.836,1.257-17.941
	c-13.716-0.938-27.271-2.031-41.084-2.871c-3.805-1.639-8.536-2.346-12.738-3.586C188.826,136.555,188.103,139.359,187.308,142.092z
	 M158.242,155.367c-14.285,2.174-25.111-5.305-30.681-13.812c-0.704-1.078-1.575-3.469-2.688-3.768
	c-0.262-0.07-0.473,0.135-0.719,0.178c-9.529,1.693-10.619,9.174-12.381,18.66c-3.677,19.83-7.119,40.631-10.764,60.279
	c-0.645,3.469-1.622,6.957-1.614,10.229c0.005,1.854,0.709,4.238,0.719,5.381c0.028,4.131-1.396,8.877-1.975,13.457
	c-3.812,30.139-7.979,59.15-12.021,88.988c-0.331,2.438-1.048,4.906-0.896,6.996c0.237,3.311,2.123,5.596,4.484,6.994
	c4.82,2.857,10.976,0.104,12.738-3.768c1.369-3.002,1.46-8.148,1.974-11.84c4.115-29.521,7.588-56.396,11.662-85.578
	c5.294,0.553,11.439,3.072,17.401,2.512c1.709-0.162,3.179-1.021,4.845-0.896c3.89,27.188,8.208,56.199,12.379,83.783
	c0.612,4.055,0.633,8.742,1.974,11.842c3.004,6.936,13.312,6.479,16.326,0.357c2.194-4.449-0.195-11.895-1.074-17.76
	c-4.784-31.922-9.162-62.871-13.994-94.371c-0.394-2.545-1.134-5.23-1.075-7.354c0.078-3.041,1.578-5.881,1.612-8.973
	c-5.868-2.84-13.674-3.438-18.479-6.816c-2.62-1.844-4.225-7.359-5.562-10.584c-4.646-11.207-9.565-23.027-13.812-33.369
	c5.507,9.203,11.137,18.568,16.686,27.986c1.829,3.107,3.336,7.061,5.74,9.148c1.593,1.385,4.038,2.188,6.279,3.23
	c9.213,4.293,19.443,9.137,28.347,13.275c4.027,1.873,7.617,4.004,11.48,5.203c6.892,2.135,13.477-4.729,10.228-11.662
	c-1.952-4.166-8.492-5.844-12.917-7.895c-10.785-4.994-21.586-10.285-32.114-15.07c-6.794-11.922-14.295-24.1-20.812-35.703
	c4.472,0.215,6.687,4.203,8.971,7.178c6.418,8.355,13.012,16.785,19.377,24.939c0.523,0.672,1.388,1.854,1.794,1.615
	c1.114-10.812,6.441-22.588,3.409-34.09C160.699,154.676,159.917,155.113,158.242,155.367z M165.06,183.895
	c7.201,4.279,12.647,10.316,19.378,15.07c1.622-1.279,2.208-3.156,3.767-4.484c2.901-2.471,7.649-2.479,11.48-4.127
	c-0.768-1.15-1.95-2.15-3.051-3.051c-1.182-0.967-2.395-1.896-3.586-2.869c-7.204-5.877-14.061-12.41-22.604-16.686
	c-0.013-0.109-0.026-0.213-0.183-0.182C168.433,172.912,166.854,178.512,165.06,183.895z M210.988,202.553
	c-4.336,1.404-8.586,2.896-13.099,4.127c-0.5,0.754-1.271,1.24-1.612,2.152c4.627,5.598,15.952,2.568,15.068-6.102
	C211.168,202.734,211.135,202.588,210.988,202.553z M179.413,225.518c-2.086-0.604-3.895-1.49-6.102-1.975
	C171.691,228.359,178.586,229.307,179.413,225.518z"/>
</svg>
