<?xml version="1.0" encoding="utf-8"?>
<!-- Generator: Adobe Illustrator 15.0.0, SVG Export Plug-In  -->
<!DOCTYPE svg PUBLIC "-//W3C//DTD SVG 1.1//EN" "http://www.w3.org/Graphics/SVG/1.1/DTD/svg11.dtd" [
	<!ENTITY ns_flows "http://ns.adobe.com/Flows/1.0/">
]>
<svg version="1.1"
	 xmlns="http://www.w3.org/2000/svg" xmlns:xlink="http://www.w3.org/1999/xlink" xmlns:a="http://ns.adobe.com/AdobeSVGViewerExtensions/3.0/"
	 x="0px" y="0px" width="353px" height="291px" viewBox="-1.195 -4.852 353 291"
	 overflow="visible" enable-background="new -1.195 -4.852 353 291" xml:space="preserve">
<defs>
</defs>
<path fill="#0655A3" d="M72.414,80.261c11.61-25.049,16.903-53.677,38.177-65.107c-2.216,0.763-4.228,1.612-6.03,2.572l-7.333,4.156
	c-11.848,7.789-13.104,8.577-20.972,15.283c-10.761,10.117-11.639,10.934-17.95,18.537c-9.034,12.027-9.771,13.013-14.6,21.476
	l-4.674,9.092c3.238-6.858,10.301-12.254,20.774-15.82L72.414,80.261z"/>
<path fill="#016F3B" d="M241.855,252.048c0,0,1.108,13.175-6.325,16.276c2.886-1.353,6.699-3.238,9.506-4.771
	c6.541-4.167,7.39-4.699,11.988-8.477c1.547-1.411,3.641-3.26,5.137-4.742c5.656-5.634,4.865-14.154-3.677-24.293
	C258.377,225.912,241.855,252.048,241.855,252.048z"/>
<path fill="#0655A3" d="M255.312,44.581c8.821-9.462,7.678-17.155-1.339-21.051c2.734,1.303,6.34,3.127,8.995,4.612
	c6.21,4.001,6.994,4.498,11.312,8.096c1.425,1.342,3.411,3.08,4.813,4.49c5.368,5.375,4.34,13.355-4.396,22.638
	C269.084,56.277,262.492,49.92,255.312,44.581z"/>
<path fill="#0655A3" d="M255.312,44.581c8.821-9.462,7.678-17.155-1.339-21.051c2.734,1.303,6.34,3.127,8.995,4.612
	c6.21,4.001,6.994,4.498,11.312,8.096c1.425,1.342,3.411,3.08,4.813,4.49c5.368,5.375,4.34,13.355-4.396,22.638
	C269.084,56.277,262.492,49.92,255.312,44.581z"/>
<path fill="#28AAE1" d="M218.735,187.438c-63.085-12.118-130.951-38.922-161.108-72.72c-3.393-3.81-6.178-7.484-8.397-11.013
	c-2.058,3.645-3.986,7.397-5.738,11.229c-6.919-11.085-8.196-20.828-4.458-28.664l4.674-9.092
	c8.062-13.147,8.541-13.945,14.6-21.476c9.999-11.348,10.582-12.028,17.95-18.537c11.308-9.127,12.229-9.872,20.972-15.283
	l7.333-4.156c-15.154,7.951-16.367,22.688-0.104,40.918c4.116,4.587,9.117,9.178,14.834,13.643
	c-8.164,8.282-15.837,17.288-22.843,26.865c31.855,24.865,82.816,46.708,130.779,55.94
	C224.96,167.714,222.132,175.003,218.735,187.438z"/>
<path fill="#8AC440" d="M299.896,156.646c-11.844,3.087-27.509,3.958-46.562,2.202c-8.506-0.784-17.256-2.065-26.106-3.756
	c2.072-11.679,3.67-23.296,4.756-34.608c-41.339-7.958-85.244-26.775-112.692-48.197c11.758-11.934,24.523-22.325,37.734-30.733
	c22.055,17.205,59.739,31.924,91.609,34.863c11.146,1.033,20.313,0.497,27.222-1.292
	C289.908,99.664,298.327,128.011,299.896,156.646z"/>
<path fill="#28AAE1" d="M123.313,28.998c-5.22-12.153,1.27-21.155,17.108-24.861l7.901-1.658c9.16-1.446,11.337-1.788,22.282-2.393
	c5.847-0.299,11.772,0.18,17.651,1.475c-15.277,0.295-22.447,6.156-18.673,14.935C153.61,18.431,138.007,22.702,123.313,28.998z"/>
<path fill="#8AC440" d="M256.664,255.624c-12.687,11.211-26.603,20.918-43.699,24.012c-17.508,3.166-38.433-0.475-53.418-6.979
	c3.386-3.368,15.205-20.04,16.248-22.033c25.98,6.195,66.636,20.918,88.856-2.929C262.248,250.068,259.153,253.422,256.664,255.624z
	"/>
<path fill="#0655A3" d="M142.22,283.176c-24.116-5.433-47.675-21.738-59.599-33.819c-0.421-0.41-0.813-0.82-1.184-1.224
	c-5.713-6.778-6.185-7.318-9.466-12.139l-1.813-2.828c-1.738-2.777-3.321-5.678-4.702-8.664c1.479,2.339,3.436,4.764,5.9,7.282
	c15.392,15.579,51.158,32.287,82.29,39.311C151.438,275.196,144.087,281.097,142.22,283.176z"/>
<path fill="#221F1F" d="M349.849,187.027c0,7.454-5.029,13.514-11.262,13.514c-11.628-2.612-23.292-5.584-35.079-7.463
	c-20.141-3.18-40.339-6.418-60.631-8.433c-27.667-2.742-55.536-3.462-83.312-2.346c-26.865,1.058-53.637,3.273-80.333,6.792
	c-7.717,1.022-15.42,2.087-23.116,3.181c-13.654,1.95-26.905,4.317-40.339,7.261c-1.507,0.331-3.008,0.662-4.529,1.008
	C5.03,200.541,0,194.481,0,187.027v-80.308c0-7.455,5.03-13.485,11.247-13.485l26.584,5.382c8.627,1.206,17.223,2.411,25.836,3.623
	c14.082,1.936,28.186,4.231,42.332,5.649c23.52,2.36,47.305,4.062,70.957,3.813c23.825-0.248,47.779-1.896,71.497-4.13
	c6.764-0.629,13.527-1.396,20.248-2.332c12.715-1.759,25.43-3.602,38.138-5.357c10.707-1.511,21.22-4.296,31.747-6.649
	c6.232,0,11.262,6.03,11.262,13.485V187.027z"/>
<path fill="#221F1F" d="M348.344,185.689c0,7.205-4.988,13.063-11.169,13.063c-11.534-2.525-23.103-5.398-34.794-7.215
	c-19.976-3.073-40.009-6.203-60.135-8.151c-27.442-2.65-55.084-3.346-82.633-2.268c-26.646,1.022-53.199,3.165-79.677,6.566
	c-7.654,0.987-15.294,2.018-22.927,3.074c-13.542,1.886-26.686,4.174-40.01,7.019c-1.495,0.32-2.983,0.641-4.493,0.975
	c-6.166,0-11.155-5.858-11.155-13.063v-77.631c0-7.207,4.989-13.036,11.155-13.036l26.368,5.203
	c8.557,1.166,17.082,2.33,25.625,3.502c13.966,1.871,27.955,4.09,41.986,5.461c23.328,2.281,46.918,3.926,70.377,3.686
	c23.63-0.239,47.39-1.833,70.914-3.993c6.708-0.608,13.416-1.349,20.083-2.253c12.611-1.701,25.222-3.481,37.826-5.179
	c10.619-1.46,21.046-4.152,31.488-6.427c6.181,0,11.169,5.829,11.169,13.036V185.689z"/>
<path fill="#FFFFFF" d="M337.175,199.003l-0.054-0.006c-2.753-0.603-5.509-1.226-8.267-1.849
	c-8.662-1.958-17.619-3.981-26.512-5.363l-2.299-0.354c-18.916-2.912-38.476-5.923-57.822-7.796
	c-18.914-1.827-38.377-2.753-57.849-2.753c-8.176,0-16.503,0.163-24.75,0.486c-27.016,1.036-53.816,3.245-79.655,6.564
	c-7.107,0.917-14.606,1.922-22.925,3.074c-13.8,1.921-26.881,4.216-39.992,7.015c-1.495,0.32-2.982,0.641-4.491,0.975
	c-0.003,0-0.006,0-0.01,0c-6.338,0-11.449-5.97-11.449-13.308v-77.631c0-7.326,5.116-13.286,11.405-13.286l26.417,5.208
	c8.542,1.163,17.067,2.328,25.611,3.5c4.016,0.538,8.102,1.114,12.053,1.672c9.799,1.382,19.932,2.812,29.923,3.788
	c25.87,2.53,46.768,3.708,65.769,3.708c1.528,0,3.055-0.008,4.582-0.023c21.022-0.213,43.55-1.481,70.895-3.992
	c6.933-0.628,13.687-1.386,20.072-2.252c6.189-0.835,12.379-1.689,18.567-2.543c6.421-0.886,12.841-1.771,19.259-2.636
	c7.975-1.097,15.967-2.918,23.697-4.679c2.592-0.59,5.181-1.181,7.771-1.745c0.003,0,0.007,0,0.01,0
	c6.346,0,11.463,5.957,11.463,13.28v77.631C348.594,193.03,343.472,199.003,337.175,199.003z M12.458,95.268
	c-5.964,0.005-10.856,5.741-10.856,12.791v77.631c0,7.065,4.892,12.813,10.905,12.813c1.456-0.328,2.945-0.648,4.44-0.969
	c13.123-2.802,26.216-5.099,40.028-7.022c8.321-1.151,15.821-2.157,22.93-3.074c25.854-3.321,52.669-5.531,79.7-6.568
	c8.253-0.323,16.587-0.486,24.77-0.486c19.487,0,38.967,0.927,57.897,2.755c19.36,1.874,38.927,4.887,57.849,7.8l2.3,0.354
	c8.91,1.384,17.875,3.41,26.545,5.369c2.749,0.621,5.494,1.242,8.238,1.843c6.008-0.017,10.892-5.759,10.892-12.813v-77.631
	c0-7.05-4.898-12.786-10.919-12.786c-2.535,0.558-5.123,1.148-7.713,1.738c-7.74,1.764-15.745,3.587-23.741,4.687
	c-6.418,0.864-12.838,1.75-19.258,2.636c-6.188,0.854-12.379,1.708-18.569,2.543c-6.393,0.867-13.153,1.626-20.094,2.255
	c-27.358,2.512-49.898,3.781-70.934,3.994c-1.529,0.016-3.058,0.023-4.587,0.023c-19.017,0-39.931-1.179-65.817-3.71
	c-10.002-0.978-20.14-2.408-29.944-3.791c-3.951-0.558-8.036-1.134-12.051-1.672c-8.544-1.172-17.069-2.336-25.626-3.502
	L12.458,95.268z"/>
<path fill-rule="evenodd" clip-rule="evenodd" fill="#FFFFFF" d="M110.947,127.054c2.324,0,4.681,0,7.005,0
	c2.728,0.568,7.617-0.259,8.941,1.832c0.708,1.101,0.19,3.288-0.389,4.803c-1.601,4.195-3.652,8.369-5.379,12.272
	c-1.234,2.777-2.515,5.612-3.663,8.167c-1.81,4.087-3.188,8.261-6.793,9.887c-2.968,1.332-7.703,1.001-11.322,1.354
	c-1.191,0-2.378,0-3.565,0c-2.777-0.353-9.592,0.137-10.75-1.843c-0.86-1.425,0-3.727,0.673-5.267
	c3.396-7.951,6.548-14.816,9.995-22.462c1.353-3.015,2.807-6.152,5.552-7.394C103.809,127.234,107.871,127.367,110.947,127.054z
	 M101.441,159.979c0.691-0.382,1.36-2.015,1.824-3.059c3.13-7.124,5.958-13.693,9.02-20.555c0.745-1.633,2.72-4.313-0.176-4.313
	c-2.324,0-2.724,1.928-3.447,3.637c-3.058,6.948-6.149,13.812-9.142,20.447c-0.522,1.173-1.299,2.281-1.331,3.663
	C98.786,160.504,100.557,160.496,101.441,159.979z"/>
<path fill-rule="evenodd" clip-rule="evenodd" fill="#FFFFFF" d="M218.289,127.054c2.354,0,4.735,0,7.103,0
	c3.634,0.641,9.57-0.626,9.211,4.033c-0.224,3.184-2.383,5.739-3.26,8.351c-4.325,0-8.649,0-12.96,0
	c0.734-1.554,1.209-2.576,1.591-3.425c0.374-0.806,1.381-2.349,1.094-3.198c-0.367-1.079-2.62-0.81-3.462-0.086
	c-0.698,0.594-1.216,2.051-1.733,3.166c-3.03,6.621-5.894,13.355-8.938,20.242c-0.389,0.95-1.54,2.756-1.432,3.375
	c0.193,0.936,2.151,1.094,3.267,0.468c0.835-0.446,1.137-1.591,1.554-2.497c1.195-2.691,2.562-5.67,3.721-8.354
	c4.339,0,8.649,0,12.974,0c-0.95,2.454-2.209,4.857-3.26,7.297c-1.043,2.403-2.058,4.929-4.036,6.548
	c-2.893,2.346-7.865,2.044-13.054,2.396c-1.165,0-2.303,0-3.461,0c-2.929-0.403-9.448,0.208-10.75-1.843
	c-0.921-1.425,0-3.792,0.669-5.382c3.26-7.678,6.317-14.428,9.699-21.875c1.382-3.08,2.721-6.005,5.182-7.487
	C210.453,127.338,215.073,127.313,218.289,127.054z"/>
<path fill-rule="evenodd" clip-rule="evenodd" fill="#FFFFFF" d="M289.131,127.076c2.454-0.083,4.894,0,7.354,0.086
	c2.216,0.115,4.663-0.036,6.8,0.586c0.669,0.194,1.295,0.554,1.69,1.137c1.087,1.604-0.144,4.181-0.755,5.659
	c-0.82,1.835-1.432,3.36-2.224,4.893c-4.289,0-8.562,0-12.866,0c0.698-1.515,1.433-3.169,2.217-4.893
	c0.201-0.46,0.698-1.267,0.568-1.73c-0.201-0.846-1.957-0.867-2.785-0.572c-1.331,0.486-1.914,2.558-2.482,3.832
	c-0.338,0.708-0.662,1.511-0.972,2.209c-0.302,0.687-0.877,1.666-0.776,2.295c0.259,1.414,5.288,2.425,6.728,2.893
	c2.296,0.748,5.584,1.568,6.138,3.353c0.497,1.525-0.438,3.281-1.058,4.599c-0.618,1.453-1.244,2.669-1.813,3.936
	c-1.504,3.396-2.669,6.966-5.856,8.556c-3.065,1.555-7.117,0.993-11.723,1.454c-1.173,0-2.353,0-3.54,0
	c-1.914-0.101-4.065-0.181-6.044-0.396c-3.354-0.353-5.577-0.878-4.8-4.512c0.799-3.784,3.533-7.497,4.713-10.944
	c4.332,0,8.686,0,13.046,0c-1.108,2.461-2.202,5.008-3.375,7.592c-0.295,0.727-1.137,2.036-0.855,2.691
	c0.273,0.597,1.942,0.733,2.784,0.374c1.482-0.619,2.145-3.217,2.871-4.886c0.417-0.943,0.827-1.742,1.252-2.699
	c0.382-0.806,1.137-2.259,0.979-2.993c-0.194-0.712-1.972-1.209-3.166-1.611c-1.41-0.468-2.669-0.914-3.662-1.26
	c-2.634-0.921-5.714-1.425-6.239-3.544c-0.331-1.324,0.353-2.81,0.871-3.929c1.417-3.289,2.921-7.501,5.368-9.606
	c1.496-1.284,3.504-1.759,5.396-2.062C284.979,127.277,287.052,127.123,289.131,127.076z"/>
<g id="XMLID_1_">
	<g>
		<path fill="#FFFFFF" d="M41.527,133.015c-0.28-0.98-2.276-0.728-3.368-0.78c-1.612,3.108-2.952,6.513-4.412,9.812
			c1.176,0.021,3.164,0.092,4.052-0.68c0.78-0.724,1.676-2.84,2.196-3.992C40.307,136.587,41.823,133.971,41.527,133.015z
			 M25.702,160.164c1.14,0,2.976,0.1,3.832-0.473c0.9-0.611,1.324-1.792,1.736-2.788c0.988-2.308,1.972-4.64,3.144-6.868
			c0.332-0.563,0.6-1.224,0.3-1.844c-0.416-0.908-2.504-0.632-3.444-0.62C29.382,151.76,27.494,155.92,25.702,160.164z
			 M54.872,129.942c0.82,2.456-1.236,5.4-2.108,7.393c-0.952,2.124-2.124,4.424-3.932,5.564c-1.308,0.815-3.284,1.42-4.888,1.84
			c1.484,0.516,3.112,0.74,3.544,2.2c0.484,1.656-0.672,3.584-1.248,4.872c-1.956,4.561-3.524,9.484-7.404,11.629
			c-3.316,1.812-9.144,1.695-13.612,1.695c-4.913,0-10.021,0-14.801,0c0-0.012,0-0.1,0-0.172
			c5.72-12.433,11.176-25.189,16.905-37.613c7.252,0.336,15.405-0.568,22.277,0.28C51.635,127.886,54.339,128.354,54.872,129.942z"
			/>
	</g>
	<g>
	</g>
</g>
<path fill-rule="evenodd" clip-rule="evenodd" fill="#FFFFFF" d="M63.643,127.338c7.105,0.302,15.093-0.525,22.062,0.295
	c3.612,0.41,6.361,1.04,5.181,5.36c-0.393,1.457-1.256,3.019-2.015,4.71c-1.95,4.393-3.907,8.113-9.61,8.746
	c1.522,0.532,3.289,0.82,3.753,2.202c0.485,1.453-0.479,3.245-1.055,4.512c-1.77,3.993-3.702,8.426-5.285,12.002
	c-4.26,0-8.516,0-12.772,0c-0.061-0.41,0.295-1.151,0.569-1.812c1.576-3.562,3.238-7.275,5.004-11.146
	c0.263-0.583,0.831-1.446,0.676-2.015c-0.284-1.044-2.27-0.691-3.364-0.763c-2.5,5.094-4.731,10.483-7.102,15.736
	c-4.321,0-8.653,0-12.963,0C52.313,152.517,57.886,139.848,63.643,127.338z M74.173,132.52c-1.324,3.252-3.073,6.771-4.436,9.876
	c-0.19,0.425-0.532,0.932-0.471,1.335c4.486,1.007,5.408-2.626,6.602-5.314c0.658-1.5,1.324-2.964,1.644-4.598
	c0.147-0.705,0.014-1.371-0.838-1.5c-0.662-0.119-1.464-0.04-2.205-0.076C74.339,132.286,74.238,132.394,74.173,132.52z"/>
<path fill-rule="evenodd" clip-rule="evenodd" fill="#FFFFFF" d="M141.184,127.338c5.724,0,11.48,0,17.205,0
	c-3.138,12.557-6.152,25.228-9.239,37.828c-4.185,0-8.373,0-12.557,0c0.792-2.705,1.745-5.288,2.576-7.979
	c-1.522-0.209-3.486,0-5.185-0.079c-1.759,2.489-3.051,5.454-4.691,8.059c-4.109,0-8.2,0-12.298,0
	c-0.086-0.438,0.288-0.827,0.468-1.151c5.703-8.857,11.571-18.024,17.392-26.969C136.978,133.757,138.989,130.39,141.184,127.338z
	 M146.285,134.829c-3.263,5.706-6.49,11.441-9.692,17.177c1.432,0,2.864,0,4.321,0c1.896-5.699,3.731-11.485,5.652-17.177
	C146.465,134.829,146.368,134.829,146.285,134.829z"/>
<path fill-rule="evenodd" clip-rule="evenodd" fill="#FFFFFF" d="M171.24,127.338c7.195,0.302,14.618-0.471,21.886,0.202
	c2.079,0.173,4.836,0.504,5.461,1.803c1.23,2.604-1.755,7.483-2.489,9.138c-2.591,5.681-4.886,11.049-7.39,16.612
	c-1.382,3.094-2.85,6.965-5.944,8.541c-3.342,1.684-8.584,1.532-13.452,1.532c-5.174,0-9.937,0-14.866,0
	c-0.043-0.827,0.543-1.475,0.849-2.194c5.141-11.686,10.445-23.76,15.751-35.338C171.046,127.464,171.125,127.382,171.24,127.338z
	 M169.517,160.173c3.655,0.547,4.224-0.813,5.278-3.174c2.612-5.9,5.17-11.534,7.667-17.169c1.058-2.342,2.41-4.569,2.899-7.102
	c-0.748-0.554-2.094-0.486-3.367-0.486C177.728,141.449,173.654,150.832,169.517,160.173z"/>
<path fill-rule="evenodd" clip-rule="evenodd" fill="#FFFFFF" d="M248.044,127.338c5.756,0,11.52,0,17.291,0
	c-3.181,12.517-6.152,25.221-9.225,37.828c-4.195,0-8.383,0-12.586,0c0.813-2.748,1.777-5.332,2.605-8.059c-1.785,0-3.512,0-5.274,0
	c-1.619,2.598-3.037,5.418-4.627,8.059c-4.102,0-8.196,0-12.269,0c-0.158-0.438,0.28-0.842,0.467-1.151
	c5.656-8.879,11.528-18.054,17.378-26.969C243.935,133.804,245.885,130.472,248.044,127.338z M253.231,134.829
	c-3.273,5.692-6.505,11.435-9.707,17.177c1.454,0,2.907,0,4.317,0c1.893-5.707,3.742-11.499,5.663-17.177
	C253.411,134.829,253.304,134.829,253.231,134.829z"/>
<path fill-rule="evenodd" clip-rule="evenodd" fill="#FFFFFF" d="M336.86,127.338c0,0.029,0,0.079,0,0.094
	c-0.914,1.533-1.432,3.443-2.41,4.9c-2.059,0-4.095,0-6.146,0c-5.044,10.819-9.664,22.077-14.802,32.834c-4.26,0-8.549,0-12.852,0
	c4.555-10.188,9.211-20.839,13.736-30.913c0.295-0.712,0.713-1.367,0.67-1.921c-2.051,0-4.102,0-6.152,0
	c0.748-1.68,1.453-3.389,2.303-4.994C319.764,127.338,328.305,127.338,336.86,127.338z"/>
<line fill="none" stroke="#221F1F" stroke-width="1.2831" x1="15.341" y1="139.794" x2="345.51" y2="139.794"/>
<path fill-rule="evenodd" clip-rule="evenodd" fill="#878787" d="M195.271,209.614c0-0.482,0-0.921,0-1.382
	c0.107-2.086,0.964-4.015,2.188-5.339c1.273-1.353,2.929-2.274,4.771-2.734c2.115-0.59,4.591-0.575,6.843-0.209
	c2.123,0.331,4.217,0.842,5.648,1.843c-0.402,0.812-0.727,1.727-1.165,2.518c-2.591-0.877-5.62-2.051-8.98-1.547
	c-2.95,0.468-5.123,2.159-5.483,5.231c-0.424,3.605,1.367,5.908,3.85,6.8c2.756,1.015,6.599,0.353,9.146-0.554
	c0-0.95,0-1.907,0-2.864c-1.914-0.115-4.102,0.043-6.009-0.071c0.028-0.763-0.05-1.627,0.043-2.332c3.022,0,5.987-0.05,9.045-0.021
	c0,2.331,0,4.655,0,6.994c-1.496,0.899-3.461,1.662-5.663,1.922c-2.295,0.273-4.893,0.295-7.073-0.202
	C198.386,216.774,195.673,214.062,195.271,209.614z"/>
<path fill-rule="evenodd" clip-rule="evenodd" fill="#878787" d="M250.807,199.777c3.26-0.208,6.088,0.813,7.973,2.095
	c1.771,1.194,3.584,3.281,3.778,6.289c0.208,3.36-1.115,5.642-2.922,7.146c-1.871,1.604-4.23,2.489-7.375,2.669
	c-2.986,0.209-5.987-0.662-7.987-2c-1.993-1.36-3.49-3.325-3.728-6.318c-0.267-3.454,1.151-5.569,2.907-7.08
	c0.892-0.777,1.813-1.382,3.145-1.878C247.771,200.224,249.231,199.886,250.807,199.777z M248.382,203.49
	c-2.461,0.957-4.965,3.477-3.864,7.009c0.626,2.037,2.253,3.317,4.44,4.03c2.417,0.777,4.986,0.353,6.843-0.727
	c1.784-1.072,3.224-2.591,2.979-5.483c-0.173-2.224-1.72-3.627-3.303-4.454c-1.23-0.634-2.777-1.102-4.648-0.95
	C249.8,203.045,249.08,203.203,248.382,203.49z"/>
<path fill-rule="evenodd" clip-rule="evenodd" fill="#878787" d="M266.025,199.95c1.303,0,2.619,0,3.915,0
	c-0.079,3.311-0.043,6.778-0.043,10.283c0,1.906,0.093,3.216,1.165,4.008c1.734,1.259,6.426,1.288,8.354,0.115
	c0.453-0.259,0.871-0.784,1.094-1.331c0.338-0.835,0.223-2.051,0.223-3.109c0-3.281,0-6.792,0-9.966c1.209,0,2.418,0,3.634,0
	c0,2.296,0,4.52,0,6.851c0,2.273,0.216,4.612-0.194,6.599c-0.82,3.835-4.281,4.612-8.951,4.612c-4.655,0-8.195-0.72-9.016-4.584
	c-0.403-1.972-0.181-4.303-0.181-6.598c0-2.296,0-4.52-0.05-6.771C265.976,200.008,265.961,199.958,266.025,199.95z"/>
<path fill-rule="evenodd" clip-rule="evenodd" fill="#878787" d="M306.718,205.023c0,0.166,0,0.338,0,0.504
	c-0.058,6.253-7.735,4.929-13.924,5.051c0.021,2.447-0.021,4.951,0.028,7.333c-1.302-0.043-2.748,0.05-3.993-0.043
	c0.058-5.894,0.058-12.046,0-17.918c3.641,0.072,7.8-0.129,11.47,0C303.89,200.059,306.616,201.339,306.718,205.023z
	 M292.794,203.167c0,1.425,0,2.856,0,4.267c1.604,0,3.303,0,5.116,0c1.748,0,3.641,0.166,4.454-0.697
	c0.468-0.533,0.641-1.922,0.18-2.713c-0.633-1.08-2.576-0.979-4.368-0.979c-1.827,0-3.604,0-5.354,0
	C292.794,203.066,292.794,203.124,292.794,203.167z"/>
<path fill-rule="evenodd" clip-rule="evenodd" fill="#878787" d="M61.523,202.411c-0.371,0.929-0.932,1.648-1.328,2.562
	c-2.389-1.072-5.321-2.684-9.095-1.849c-1.022,0.223-2.389,0.705-2.245,2.029c0.129,1.021,1.504,1.359,2.432,1.532
	c3.378,0.611,7.595,0.166,9.613,2.137c1.09,1.08,1.659,3.843,0.572,5.635c-0.914,1.489-2.929,2.454-5.357,2.835
	c-4.278,0.626-8.311-0.043-10.934-1.849c0.342-0.914,0.817-1.713,1.141-2.634c2.389,1.46,7.703,2.95,10.88,1.216
	c0.558-0.324,1.295-0.893,1.104-1.856c-0.388-1.741-4.029-1.489-6.044-1.612c-2.271-0.158-4.717-0.59-5.94-1.734
	c-1.608-1.547-1.464-4.763-0.061-6.411c1.285-1.438,3.404-2.13,6.167-2.288C56.116,199.907,59.041,200.915,61.523,202.411z"/>
<path fill-rule="evenodd" clip-rule="evenodd" fill="#878787" d="M65.719,200.778c5.346,0,10.71,0,16.053,0c0,0.928,0,1.842,0,2.784
	c-4.123,0-8.246,0-12.366,0c-0.094,1.26-0.007,2.706-0.036,4.037c2.781,0,5.57,0,8.358,0c0,0.928,0,1.856,0,2.799
	c-2.821-0.043-5.583,0.015-8.358,0.029c0,1.496,0,3,0,4.469c4.156,0.057,8.38,0.043,12.607,0.043c0,1.007,0,2.008,0,2.979
	c-5.433,0-10.876,0-16.298,0c0-5.648,0-11.354,0-17.025C65.679,200.836,65.679,200.792,65.719,200.778z"/>
<path fill-rule="evenodd" clip-rule="evenodd" fill="#878787" d="M163.872,200.778c5.35,0,10.704,0,16.065,0
	c0,0.928,0,1.842,0,2.784c-4.127,0-8.254,0-12.374,0c-0.072,1.26-0.007,2.706-0.036,4.037c2.781,0,5.569,0,8.368,0
	c0,0.928,0,1.856,0,2.799c-2.824-0.043-5.587,0.015-8.368,0.029c0,1.496,0,3,0,4.469c4.155,0.057,8.4,0.043,12.6,0.043
	c0,1.007,0,2.008,0,2.979c-5.418,0-10.862,0-16.298,0c0-5.648,0-11.354,0-17.025C163.829,200.836,163.829,200.792,163.872,200.778z"
	/>
<path fill-rule="evenodd" clip-rule="evenodd" fill="#878787" d="M112.055,200.778c2.134,3.936,3.99,8.181,5.94,12.312
	c2.026-4.051,3.731-8.419,5.922-12.312c1.166,0,2.335,0,3.5,0c-2.637,5.728-5.166,11.542-7.894,17.14c-1.076,0-2.123,0-3.184,0
	c-2.781-5.584-5.299-11.455-8.016-17.126C109.497,200.721,110.814,200.792,112.055,200.778z"/>
<path fill-rule="evenodd" clip-rule="evenodd" fill="#878787" d="M132.354,200.778c1.202,0,2.407,0,3.612,0
	c0,5.713,0,11.427,0,17.14c-1.206,0-2.432,0-3.641,0c0-5.648,0-11.354,0-17.025C132.326,200.836,132.318,200.792,132.354,200.778z"
	/>
<path fill-rule="evenodd" clip-rule="evenodd" fill="#878787" d="M87.374,200.311c5.314,0.481,13.276-1.31,16.025,1.842
	c1.209,1.41,1.432,4.584,0.079,6.195c-0.82,1.008-2.108,1.468-3.677,1.799c1.378,2.411,3.479,4.9,4.904,7.304
	c-1.403-0.237-2.58,0.346-3.749,0c-0.439-0.137-1.155-1.194-1.493-1.611c-1.41-1.648-2.572-3.85-3.875-5.411
	c-1.482,0-3.004,0-4.533,0c-0.141,2.237-0.011,4.691-0.062,7.022c-1.219,0-2.461,0-3.684,0c0-5.663,0-11.304,0-16.96
	C87.309,200.39,87.302,200.311,87.374,200.311z M90.993,203.311c0,1.512,0,3.051,0,4.584c3.231-0.374,8.239,0.964,9.438-1.316
	c0.392-0.734,0.313-1.54,0-2.131c-1.159-2.201-6.293-1.007-9.376-1.323C90.993,203.124,90.993,203.231,90.993,203.311z"/>
<path fill-rule="evenodd" clip-rule="evenodd" fill="#878787" d="M219.814,200.311c5.332,0.481,13.291-1.31,16.025,1.842
	c1.245,1.41,1.475,4.584,0.115,6.195c-0.835,1.008-2.102,1.468-3.706,1.799c1.403,2.411,3.512,4.9,4.9,7.304
	c-1.389-0.237-2.547,0.346-3.721,0c-0.453-0.137-1.18-1.194-1.496-1.611c-1.418-1.648-2.569-3.85-3.864-5.411
	c-1.532,0-3.029,0-4.555,0c-0.137,2.237-0.021,4.691-0.051,7.022c-1.245,0-2.461,0-3.698,0c0-5.663,0-11.304,0-16.96
	C219.765,200.39,219.765,200.311,219.814,200.311z M223.463,203.311c0,1.512,0,3.051,0,4.584c3.231-0.374,8.232,0.964,9.44-1.316
	c0.382-0.734,0.31-1.54,0-2.131c-1.172-2.201-6.324-1.007-9.39-1.323C223.456,203.124,223.463,203.231,223.463,203.311z"/>
<path fill-rule="evenodd" clip-rule="evenodd" fill="#878787" d="M160.277,202.21c-0.493,0.957-1.147,1.756-1.669,2.713
	c-1.921-0.921-3.789-1.95-6.372-2.029c-4.109-0.13-7.401,2.339-7.038,6.562c0.259,2.986,2.835,4.764,5.775,5.131
	c3.169,0.396,6.199-1.058,8.336-2.418c0.529,0.741,1,1.562,1.489,2.331c-2.166,1.389-4.425,2.792-7.703,3.016
	c-4.508,0.287-8.495-1.332-10.319-4.159c-2.119-3.289-1.27-8.247,1.375-10.628c1.759-1.576,4.051-2.411,7.271-2.605
	C154.945,199.922,157.993,200.85,160.277,202.21z"/>
</svg>
