<?xml version="1.0" encoding="utf-8"?>
<!-- Generator: Adobe Illustrator 15.0.0, SVG Export Plug-In  -->
<!DOCTYPE svg PUBLIC "-//W3C//DTD SVG 1.1//EN" "http://www.w3.org/Graphics/SVG/1.1/DTD/svg11.dtd" [
	<!ENTITY ns_flows "http://ns.adobe.com/Flows/1.0/">
]>
<svg version="1.1"
	 xmlns="http://www.w3.org/2000/svg" xmlns:xlink="http://www.w3.org/1999/xlink" xmlns:a="http://ns.adobe.com/AdobeSVGViewerExtensions/3.0/"
	 x="0px" y="0px" width="423px" height="424px" viewBox="-2.004 -2.562 423 424"
	 overflow="visible" enable-background="new -2.004 -2.562 423 424" xml:space="preserve">
<defs>
</defs>
<path fill="#2D6AB9" d="M305.76,119.521c1.445,2.953,2.745,6.053,4.319,8.879c-8.08,0.561-17.2,0.08-25.68,0.24
	c1.175-3.227,2.505-6.295,4.08-9.119C294.24,119.521,299.999,119.521,305.76,119.521z"/>
<path fill="#2D6AB9" d="M194.879,91.68c-2.294,20.668-5.182,42.818-7.92,63.842c-7.223,5.25-14.002,9.041-21.6,13.68
	c-7.583,4.627-15.966,10.643-29.04,8.398c-2.074-0.355-4.667-1.928-6.721-2.158c-2.813-0.32-6.653,1.096-10.08,1.68
	c-10.06,1.711-20.303,2.986-30,4.799c-3.504-14.176-7.137-28.223-10.561-42.479c9.224-4.766,19.126-7.982,28.8-12
	c28.472-11.824,57.819-23.699,86.642-35.521C194.678,91.959,194.826,91.867,194.879,91.68z M125.039,138.48
	c-5.836,11.266,0.718,23.223,8.16,27.359c13.716,7.625,30.595-2.492,30.479-18c-0.089-11.988-10.01-21.604-23.278-19.92
	C133.024,128.857,127.266,134.184,125.039,138.48z"/>
<path fill="#2D6AB9" d="M202.079,0c4.88,0,9.76,0,14.64,0c31.547,1.506,58.735,8.832,81.841,19.682
	c44.638,20.959,80.077,56.531,100.801,101.279c8.113,17.521,14.01,36.355,17.279,58.561c1.104,7.488,1.713,15.621,2.159,23.52
	c0,4.16,0,8.32,0,12.48c-3.561,63.941-27.252,107.652-61.438,141.84c-29.601,29.602-66.995,51.758-118.08,59.279
	c-7.487,1.104-15.658,1.717-23.521,2.16c-4.24,0-8.479,0-12.721,0c-0.007-0.232-0.294-0.186-0.479-0.24
	c-63.222-3.256-107.967-27.566-141.359-60.959C27.829,324.229,3.723,279.41,0,216.721c0-4.879,0-9.76,0-14.641
	C3.721,139.201,27.895,94.508,61.44,60.961C95.003,27.396,140.028,3.68,202.079,0z M269.999,193.441
	c6.319,2.666,15.811,6.846,22.8,9.84c2.882,1.232,5.602,2.736,8.4,2.16c3.516-0.725,6.842-5.859,9.359-8.881
	c5.762-6.914,10.947-13.74,16.319-20.16c2.514-3.002,7.046-6.562,7.2-11.039c0.171-4.965-3.758-8.16-7.68-8.16
	c-4.238,0-6.625,3.482-8.881,6.24c-5.054,6.178-9.187,11.088-13.92,16.799c-2.325,2.807-4.203,6.062-6.961,7.92
	c-14.283-6.248-29.879-12.842-45.119-19.439c-3.646-1.578-11.105-6.273-16.079-5.52c-9.231,1.398-7.44,16.273-7.44,27.119
	c0,5.859,0,11.6,0,17.279c0,11.738,0.825,23.441,0,34.32c-0.66,8.703-2.689,18.291-4.08,27.84
	c-3.424,23.537-6.578,45.996-9.84,69.84c-0.669,4.891-2.353,10.256-1.92,14.16c0.919,8.305,12.92,10.977,17.28,4.08
	c1.667-2.639,1.791-7.385,2.399-11.52c4.354-29.58,7.964-57.078,12.479-86.16c4.239,0,8.479,0,12.72,0
	c4.812,26.08,10.271,57.826,15.36,85.199c1.515,8.148,2.665,18.777,13.199,16.318c9.376-2.188,6.606-11.842,5.04-20.879
	c-5.022-28.977-10.28-58.287-15.12-87.121c-0.837-4.99-2.047-9.992-2.399-14.639c-0.941-12.42,0.71-24.713,0-37.201
	c-10.343-7.168-22.834-13.961-33.601-20.879c-0.062-0.041-2.247-1.326-0.96-0.961C248.63,184.484,258.451,188.566,269.999,193.441z
	 M227.999,95.76c0.972,3.91,1.814,14.373,8.16,14.16c8.779-0.295,3.834-12.225,2.399-18c-2.219-8.939-4.342-18.084-6.479-26.641
	c-1.462-5.854-1.854-15.914-8.88-15.119c-9.753,1.104-1.014,16.789-0.72,23.279c-49.012,20.266-98.357,40.205-147.602,60.24
	c-0.821-0.564-3.407-0.93-5.279-0.48c-3.378,0.811-3.418,3.4-5.761,5.041c-3.695,2.586-10.98,2.447-10.8,6.719
	c0.261,6.133,9.052,0.797,12-0.238c2.896,10.98,6.127,25.076,9.12,36.959c0.947,3.764,1.664,9.295,3.359,12.24
	c2.703,4.695,7.772,3.627,13.921,2.641c9.758-1.566,19.703-3.521,28.56-4.561c0.309,18.973-0.623,39.184,0.48,57.359
	c-2.201,17.238-3.078,35.17-4.562,53.76c-1.029,12.922-2.06,27.236-3.12,40.801c-0.354,4.539-1.522,9.982-0.72,13.439
	c1.709,7.346,14.089,9.188,17.04,0.961c1.066-2.975,0.925-7.736,1.2-11.521c2.03-27.9,4.184-56.883,6.479-83.279
	c4.159,0,8.319,0,12.479,0c2.188,26.621,4.315,56.324,6.479,84c0.267,3.402,0.195,8.809,1.439,11.52
	c3.067,6.688,13.906,5.945,16.319-0.479c1.153-3.072,0.118-8.865-0.239-13.439c-2.168-27.721-4.041-54.287-6.24-81.6
	c-0.37-4.596-1.269-9.236-1.2-13.441c0.332-20.307,0.751-42.684,0.48-63.84c8.849-5.658,17.07-11.004,26.16-16.561
	c3.359-2.055,6.899-3.479,8.159-6.238c0.902-1.982,1.058-5.484,1.439-8.641c1.918-15.799,3.906-30.734,5.76-45.842
	c0.729-5.939,2.29-13.172,2.16-18.479c-0.046-1.893-0.895-2.982-0.96-4.561c5.16-1.881,9.949-4.131,15.12-6
	C225.574,85.143,226.473,89.607,227.999,95.76z M297.6,114.721c-3.625,0-7.853-0.803-11.04,0c-2.356,0.592-3.267,4.6-4.319,6.959
	c-1.229,2.752-2.314,5.162-3.36,6.961c-1.711-0.031-3.395-0.035-4.8,0.238c4.949,11.656-0.463,24.332-6.479,30.48
	c-0.464,0.475-1.437,1.146-1.199,1.92c15.358,0,30.72,0,46.08,0c3.358-3.039,4.684-8.115,10.079-9.119
	c0.302-1.539,0.521-3.158,0.96-4.561c1.881,0.119,3.393-0.129,5.041-0.24c0-4.561,0-9.119,0-13.682c-1.682,0-3.36,0-5.041,0
	c-0.807-3.592-3.078-5.721-8.159-5.039c-2.406-4.475-4.09-9.67-6.96-13.68C304.869,114.537,301.251,114.721,297.6,114.721z
	 M227.999,139.441c0.046,20.916,28.783,25.732,36.96,8.398c6.748-14.307-5.286-28.943-19.199-27.6
	C235.438,121.236,227.978,129.314,227.999,139.441z M359.52,130.32c-2.188,0.832-3.491,3.938-6.239,4.561
	c-3.273,0.744-6.696-0.537-10.8,0c-0.82-2.891-5.011-3.041-8.642-2.4c0,5.602,0,11.201,0,16.801c1.931,0.391,4.441,0.199,6.722,0.24
	c1.213-3.826,8.091-1.988,12.72-2.4c2.833,2.562,3.444,6.99,10.08,5.521c0-7.439,0-14.881,0-22.32
	C362.079,130.32,360.799,130.32,359.52,130.32z"/>
</svg>
