<?xml version="1.0" encoding="utf-8"?>
<!-- Generator: Adobe Illustrator 15.0.0, SVG Export Plug-In  -->
<!DOCTYPE svg PUBLIC "-//W3C//DTD SVG 1.1//EN" "http://www.w3.org/Graphics/SVG/1.1/DTD/svg11.dtd" [
	<!ENTITY ns_flows "http://ns.adobe.com/Flows/1.0/">
]>
<svg version="1.1"
	 xmlns="http://www.w3.org/2000/svg" xmlns:xlink="http://www.w3.org/1999/xlink" xmlns:a="http://ns.adobe.com/AdobeSVGViewerExtensions/3.0/"
	 x="0px" y="0px" width="423px" height="424px" viewBox="-2.062 -2.21 423 424"
	 overflow="visible" enable-background="new -2.062 -2.21 423 424" xml:space="preserve">
<defs>
</defs>
<path fill-rule="evenodd" clip-rule="evenodd" fill="#2D6AB9" d="M203.538,0c4.058,0,8.118,0,12.176,0
	c63.943,3.252,108.467,27.841,142.163,61.538c33.669,33.668,58.146,78.25,61.374,142.165c0,3.95,0,7.897,0,11.846
	c-3.21,63.659-27.77,108.725-61.374,142.329c-33.517,33.516-78.517,58.146-142.328,61.373c-3.95,0-7.897,0-11.847,0
	c-63.665-3.202-108.726-27.77-142.328-61.373C27.881,324.384,3.269,279.433,0,215.714c0-4.059,0-8.118,0-12.177
	c0.128-0.036,0.191-0.137,0.165-0.329c0.887-32.136,8.65-59,19.415-82.105c10.87-23.329,25.071-42.841,41.957-59.729
	C95.181,27.73,139.716,3.265,203.538,0z M227.067,62.032c0.148,4.036,6.487,5.215,9.05,6.416
	c10.799,5.063,18.917,12.01,25.175,21.391c7.935,11.897,13.717,30.616,8.391,49.691c-0.464,1.665-1.955,4.642-1.48,6.747
	c0.384,1.704,1.74,3.597,4.771,3.291c4.172-0.425,5.141-7.745,6.088-12.506c3.459-17.361-0.941-34.544-7.075-46.072
	c-4.021-7.559-9.136-14.448-16.618-20.567c-4.857-3.971-10.85-7.737-17.277-10.693c-2.452-1.129-5.176-2.461-7.569-1.976
	C228.75,58.112,226.978,59.615,227.067,62.032z M215.879,79.803c0.327,3.401,4.546,4.132,7.239,5.264
	c2.842,1.197,5.816,3.115,7.897,4.608c9.309,6.679,16.843,17.707,18.264,31.758c0.608,6.002-0.307,12.121-1.646,16.781
	c-0.528,1.837-1.147,3.851-0.822,5.102c0.43,1.652,2.194,3.676,5.594,2.962c3.066-0.646,3.842-5.698,4.607-9.544
	c4.551-22.846-5.392-40.888-17.276-51.171c-4.9-4.242-11.223-8.661-17.935-10.366c-0.642-0.163-1.686-0.176-1.811-0.165
	C217.941,75.198,215.562,76.525,215.879,79.803z M210.117,100.863c0.351,2.688,4.011,3.721,6.091,4.772
	c2.159,1.093,4.932,3.122,6.416,4.606c4.307,4.308,8.42,12.061,6.582,21.226c-0.527,2.62-1.564,3.472-1.316,5.594
	c0.253,2.171,2.364,3.587,3.784,3.785c5.279,0.734,6.289-6.048,6.581-11.354c0.799-14.403-6.244-24.171-14.643-29.781
	c-2.442-1.631-6.879-4.284-9.873-3.785C211.662,96.272,209.742,97.96,210.117,100.863z M191.525,96.421
	c-7.048,10.761-14.708,21.385-21.883,32.25c-6.643,10.059-13.688,20.094-20.404,29.783c-0.339,0.489-0.955,1.28-0.823,1.974
	c9.201,0.287,18.99-0.011,27.808,0.658c-0.652,17.179,0.774,35.311,6.418,47.881c5.117,11.401,18.155,19.174,37.106,17.153
	c-13.14-4.99-15.866-17.804-16.869-30.152c-0.939-11.555-0.221-24.337,0.823-34.716c9.332,0.264,18.897,0.297,28.301,0.493
	C218.676,139.804,205.17,118.042,191.525,96.421z M104.154,176.717c0,8.282,0,16.565,0,24.846c2.532-0.481,5.098,0.658,7.24,0
	c1.099-0.339,2.033-2.097,2.797-2.961c1.009-1.144,1.96-2.69,2.961-2.962c2.17-0.592,5.601,0,8.227,0c8.525,0,16.412,0,24.681,0
	c2.447,2.544,5.323,5.537,7.075,8.227c-3.564,0-6.999,0-11.023,0c-3.479,0-8.142-0.658-10.367,0.659
	c-2.788,1.648-2.138,5.861-2.138,10.694c0,17.891,0,34.528,0,51.995c0,3.178-0.335,6.706,0.329,8.394
	c1.539,3.913,8.779,2.796,14.645,2.796c25.869,0,51.23,0,77.006,0c3.887,0,10.04,0.657,12.34-0.492
	c4.312-2.162,2.986-11.133,2.986-16.321c5.762,0.052,10.533,0.029,16.43,0.029c0.915-0.006,2.385-3.461,2.903-4.171
	c2.066-2.83,5.529-2.244,8.613-2.244c3.79,0,7.58,0,11.369,0c1.93,0,3.862,0.038,5.791-0.008c1.086-0.026,2.286-0.122,3.277,0.414
	c1.081,0.582,1.65,1.787,2.423,2.689c2.084,2.434,4.083,4.942,6.1,7.434c0.854,1.057,2.18,3.174,3.125,3.457
	c1.748,0.518,4.292,0,6.419,0c2.136,0,4.218,0,6.416,0c0.276-18.321,0.276-37.79,0-56.11c-2.94,0-5.88,0.004-8.821,0.022
	c-1.908,0.012-3.845-0.084-5.483,1.036c-1.502,1.027-2.514,2.501-3.634,3.897c-1.07,1.338-2.357,2.486-3.423,3.83
	c-0.783,0.985-1.478,2.607-2.826,2.897c-1.999,0.43-4.647,0-6.91,0c-4.32,0-8.639,0.005-12.958-0.001
	c-2.358-0.002-5.896,0.717-8.034-0.502c-1.289-0.735-2.236-2.117-3.082-3.311c-0.645-0.91-1.355-2.534-2.581-2.769
	c-3.34-0.639-5.129-0.243-8.84-0.243c4.179-4.528,8.508-9.133,13.117-13.744c1.294-1.295,3.232-4.236,4.771-4.606
	c1.699-0.409,3.472-0.49,5.211-0.451c0.842,0.019,1.684,0.034,2.525,0.028c0.851-0.007,1.677-0.041,2.395,0.484
	c0.66,0.482,1.059,1.208,1.446,1.911c1.105,2.003,2.661,3.434,4.899,4.08c0.887,0.257,1.854,0.457,2.775,0.528
	c6.247,0.482,13.568,0,20.896,0c7.901,0,15.24,0.547,21.062,0c7.532-0.708,12.344-9.38,7.568-15.961
	c-1.422-1.96-4.159-4.007-7.898-4.278c-5.809-0.422-13.26,0-20.896,0c-7.459,0-14.916-0.637-21.062,0
	c-0.923,0.096-2.442,0.461-2.962,0.658c-1.854,0.701-2.992,2.76-4.772,3.125c-2.396,0.494-5.397,0-8.062,0
	c-2.502,0-6.328-0.018-8.693,0.631c-1.354,0.373-3.223,2.73-4.471,3.977c-3.564,3.563-6.514,6.357-9.873,9.543
	c-1.688,1.604-3.115,3.357-4.936,4.443c-0.023-5.962-8.131-4.443-14.643-4.443c-4.909,0-9.604,0-13.328,0
	c3.068,13.521,9.487,24.48,25.338,24.682c-7.703,1.34-16.31,2.302-24.545,1.867c-4.535-0.237-8.048-0.3-11.817-0.718
	c-16.856-1.856-25.202-14.603-29.455-28.627c-0.478-1.582-0.56-3.681-1.314-5.267c-0.527-1.108-2.385-2.491-3.456-3.619
	c-2.446-2.576-4.493-4.62-6.91-7.24c-1.124-1.216-2.361-3.153-3.621-3.456c-2.58-0.621-6.492,0-9.544,0c-6.928,0-12.548,0-19.415,0
	c-3.162,0-7.056,0.727-9.708,0c-2.229-0.612-3.231-4.616-5.922-5.265c-2.315-0.558-4.637,0.406-7.57,0
	C104.126,176.25,104.141,176.483,104.154,176.717z M158.454,286.466c-13.31,5.684-27.232,12.384-40.478,18.264
	c-1.939,0.861-4.413,1.434-5.922,2.467c-1.283,0.878-2.464,2.999-3.622,4.446c-3.823,4.77-7.254,9.125-10.86,13.655
	c3.212,2.272,5.95,5.02,9.214,7.239c2.929-4.243,5.794-8.322,8.721-12.505c0.973-1.387,1.994-3.234,3.127-4.114
	c1.249-0.971,3.265-1.64,4.936-2.468c11.674-5.773,23.665-12.017,34.883-17.276c0,1.208,0,2.413,0,3.621c18.922,0,37.843,0,56.766,0
	c0.383-5.049,0.056-10.806,0.165-16.127c-18.594-0.383-38.078-0.054-56.943-0.163C158.441,284.559,158.454,285.488,158.454,286.466z
	 M92.473,333.525c-1.172,1.552-2.659,3.351-2.799,4.77c-0.332,3.394,2.362,5.967,5.925,5.267c1.839-0.361,3.116-2.545,4.442-4.277
	c1.372-1.796,3.165-3.285,3.29-5.596c0.205-3.731-2.674-5.449-5.595-4.936C95.068,329.221,94.203,331.232,92.473,333.525z"/>
</svg>
